<svg version="1" xmlns="http://www.w3.org/2000/svg" width="1600" height="1600" viewBox="0 0 1200.000000 1200.000000"><path d="M593.6 11.7c-3.3 6-7 12.6-8.2 14.8-1.2 2.2-8.2 15-15.6 28.5-7.5 13.5-14.7 26.7-16.2 29.5-1.5 2.7-3.5 6.3-4.5 8-.9 1.6-3.7 6.6-6.1 11-24.3 45.1-36.9 67-40.6 71-10.9 11.4-27.3 13.5-44.9 5.5-3.3-1.5-8.9-4-12.5-5.5-3.6-1.5-7.8-3.3-9.5-4-21.4-9.3-48.3-20.5-49.3-20.5-.7 0-1.1.4-.8.9.3.5.8 2.6 1.1 4.7.6 3.9 3.9 25.9 4.9 32.4.3 1.9 1.7 10.9 3.1 20 1.4 9.1 3.2 20.3 4 25 .8 4.7 1.7 10.5 2 13 .3 2.5 1 7 1.6 10 1.5 8.8 1.7 10.1 2.9 18.3.6 4.3 1.3 8.8 1.5 10 .2 1.2.6 4 1 6.2.3 2.2 1.5 9.6 2.6 16.5 1 6.9 2.4 15.6 2.9 19.5.6 3.8 1.2 7.7 1.5 8.5.2.8.7 3.5 1 6 .3 2.5.7 5.6.9 7 .3 1.4.7 4.1 1 6 .3 1.9 1.2 8 2.1 13.5.9 5.5 1.8 11.3 2.1 13 .2 1.6.6 4.1.9 5.5.2 1.4.7 4.3 1 6.5.3 2.2 1 6.9 1.6 10.5.5 3.6 1.2 7.6 1.4 9 2.3 14.8 2.4 16.9 1 20.4-3.7 8.8-14.9 12.7-22.6 7.8-2.6-1.7-23.5-21.8-106.9-103-9.6-9.4-17.6-16.9-17.8-16.8-.1.2-4.5 12.6-9.6 27.7-10.7 31.5-11 32-15.1 37.4-5.5 7.3-11.2 11.4-20.3 14.4-10.6 3.7-14.7 3-81.5-13.8-33.5-8.4-61-15.1-61.3-14.8-.4.4.1 3.2 8.1 41.7 2.5 12.4 4.8 23.6 5.1 25 .7 3.6 11.1 54 15 72.4 5.4 26.1 6.6 33.7 6.2 40.2-.8 11.8-7.6 23.8-17.2 30.1-2.5 1.7-11.4 5.8-19.8 9.2-8.4 3.4-16.3 6.7-17.6 7.4l-2.3 1.1 2.9 2.6c10.3 9 33.8 29.8 35.1 31 .9.8 7 6.2 13.6 11.9 6.6 5.8 14.3 12.5 17 15 2.8 2.5 8.1 7.3 11.9 10.6 3.8 3.3 7.4 6.5 8 7.1.6.5 7.4 6.6 15.1 13.3 7.7 6.8 15.6 13.8 17.5 15.5 1.9 1.8 13.4 11.9 25.5 22.5 12.1 10.7 23.6 20.8 25.6 22.6 1.9 1.8 13.6 12.1 26 23 12.3 10.9 22.9 20.3 23.5 20.9.6.6 4 3.6 7.5 6.6 11 9.4 17.4 16.7 21.6 24.7 7.9 15.2 9.4 29.8 4.8 48.8-1.2 5.3-3.7 16.3-4.1 18.5-.3 1.4-.7 3.3-1 4.2-.3.9-.7 2.7-.9 4-.8 3.8-1.3 6.5-4 18.3-3 13.2-3.4 11.8 3.2 11.1 3.2-.3 6.7-.8 7.8-1 1.1-.2 4.5-.7 7.5-1.1 3-.3 6.6-.8 8-1 1.4-.3 4.5-.6 7-.9 2.5-.3 9.7-1.2 16-2 6.3-.9 13.5-1.8 16-2.1 2.5-.3 5.6-.7 7-1 1.4-.2 4.5-.7 7-1 2.5-.3 6.1-.7 8-1 3.3-.5 15.4-2 23-3 1.9-.2 5.5-.7 8-1 2.5-.4 5.9-.8 7.5-1 1.7-.2 6.4-.9 10.5-1.4 9.2-1.3 14.1-1.9 20-2.6 2.5-.3 5.9-.7 7.5-1 3.1-.5 4.4-.7 18.5-2.5 8.4-1.1 12.3-1.6 19-2.5 3.8-.5 10.3-1.3 19.5-2.5 12.8-1.6 23.2 1.8 32 10.6 4.4 4.3 8.9 12.2 10.1 17.6.5 2.3.5 30.6-.1 52.3-.2 6.6-.6 26.2-1 43.5s-.8 38.2-1 46.5c-.6 24.4-2 91.1-2.5 115.5l-.2 11.5 26.2.3 26.2.2-.7-32.7c-1.2-59.3-1.4-71.6-1.9-91.3-.3-10.7-.8-33.7-1.2-51-.3-17.3-.8-36.2-.9-42-.6-20.6-.6-50.5-.1-52.8 2.1-9.2 10.4-20 18.8-24.3 4.8-2.5 13-4.6 16.8-4.4 6.1.5 17.5 1.7 18 2 .3.1 3.6.6 7.3 1 3.7.3 7.8.8 9 1.1 1.2.2 4.7.6 7.7.9 3 .4 6.2.8 7 1 .8.2 3.8.7 6.5 1 4.3.5 9.4 1.2 23.8 3.1 1.5.2 4.4.5 6.5.8 3.4.5 24.2 3.2 32.2 4.2 3.8.5 6.8.9 18 2.4 4.1.6 9.5 1.3 12 1.6 2.5.3 5.8.7 7.5 1 1.6.2 6.8.8 11.5 1.4 4.7.6 9.2 1.3 10 1.5.8.2 4.2.6 7.5 1 3.3.3 7.5.8 9.3 1.1 1.7.2 4.7.6 6.5.8 10.9 1.5 13.5 1.8 15.7 2.2 1.4.2 5.1.7 8.4 1 5.4.6 5.8.5 5.2-1.2-.5-1.9-11.8-52.6-13.7-61.9-2.5-12-.2-29 5.3-39.8 5.4-10.8 9.4-15.1 30.8-33.7 4.1-3.6 7.7-6.7 8-7.1.4-.4 20.5-18.2 29.9-26.4 1.9-1.7 4.6-4.1 6-5.4 1.4-1.3 5.5-4.9 9-8 3.5-3.1 8.3-7.2 10.5-9.2 2.3-2 8.4-7.4 13.6-12 5.2-4.6 9.7-8.6 10-8.9.3-.3 4.1-3.7 8.5-7.5 4.4-3.9 8.5-7.5 9.1-8 3.1-2.8 17.1-15.2 25.9-23 5.5-4.8 10.2-9.1 10.5-9.4.3-.4 3.7-3.3 7.5-6.6 3.9-3.3 7.2-6.2 7.5-6.5.3-.3 6.1-5.5 13-11.5 6.9-6.1 14.1-12.4 16-14.2 3.5-3.1 19.3-17.1 30.4-27l5.9-5.1-3.8-1.6c-2-.9-3.9-1.6-4.1-1.6-.2 0-2.7-1.1-5.6-2.4-2.9-1.3-8.4-3.6-12.3-5.1-3.8-1.4-7.9-3.1-9-3.6-1.1-.5-7.8-3.3-15-6.3-9.9-4.1-13-5.9-13-7.3 0-1 .7-5.2 1.6-9.3 1-4.1 2-8.9 2.2-10.5.3-1.7 1.3-6.4 2.2-10.5.9-4.1 1.8-9.1 2.1-11 .3-1.9.8-3.8 1-4.1.2-.4.6-2.4 1-4.5.3-2.2.9-5.5 1.4-7.4.5-1.9 1.1-4.9 1.4-6.5.3-1.7 3.2-16.1 6.5-32 3.3-16 6.2-30.1 6.5-31.5.3-1.4.7-3.6 1-5 .3-1.4 1.1-5 1.7-8 1.3-6.7 1.4-7.3 4-19.6 1.1-5.5 2.2-10.9 2.5-12.2.2-1.2.6-3.2.8-4.5.3-1.2 1.4-6.6 2.5-12.1 1.2-5.4 2.1-10.2 2.1-10.6 0-.5-1.5-.4-3.2.1-1.8.6-4.2 1.2-5.3 1.4-1.1.3-28.1 7.1-60 15.1-31.9 8.1-59.6 15-61.5 15.4-1.9.5-8.8 2.2-15.3 3.8l-11.8 3-.8-2.2c-1.6-4-13.6-39.2-23.1-67.1-3.3-9.9-6.3-18.6-6.5-19.4-.4-.9-1.7-.1-4.4 2.5-3.6 3.6-44.3 43.2-65.6 63.9-4.9 4.8-19 18.4-31.3 30.3-12.2 11.9-23.3 22.2-24.6 22.9-5.8 3.1-14.5 1.5-18.8-3.3-2.2-2.6-4.6-8.4-4.3-10.6.2-.9.5-3.4.8-5.5 1.5-10 2-13.4 3.2-20.8.8-4.4 1.7-9.8 2-12 .3-2.2 1.3-8.5 2.1-14 .9-5.5 2-12.9 2.5-16.5.5-3.6 1.1-7.2 1.4-8 .2-.8.7-4 1-7 .3-3 .8-6.2 1-7 .2-.8 1.1-6.2 2-12 .8-5.8 1.7-11.4 1.9-12.5.3-1.9 1.3-7.7 2.1-13.5.2-1.4 2.7-16.9 5.4-34.5 2.8-17.6 5.2-33.4 5.5-35 .2-1.7 1.1-7.3 1.9-12.5.9-5.2 1.9-11.5 2.2-14 .4-2.5 1.9-12.6 3.5-22.5s3.2-19.8 3.5-22c.4-2.2.8-5 1-6.2.3-2.1.1-2-7.8 1.4-4.5 1.9-12 5.1-16.7 7-4.7 1.9-10.3 4.3-12.5 5.3-28.2 12.5-45.4 19.2-51 19.7-15.1 1.4-28.3-6-35.8-19.9-4.7-8.7-6.9-12.6-68.7-124.8-5.9-10.7-12.3-22.4-14.3-26-5.2-9.7-7.1-13-7.7-13-.3 0-3.2 4.8-6.4 10.7z"/></svg>