<svg fill="#002D72" xmlns:dc="http://purl.org/dc/elements/1.1/" xmlns:cc="http://creativecommons.org/ns#" xmlns:rdf="http://www.w3.org/1999/02/22-rdf-syntax-ns#" xmlns:svg="http://www.w3.org/2000/svg" xmlns="http://www.w3.org/2000/svg" xmlns:sodipodi="http://sodipodi.sourceforge.net/DTD/sodipodi-0.dtd" xmlns:inkscape="http://www.inkscape.org/namespaces/inkscape" viewBox="0 0 630.80101 713.71102" version="1.1" x="0px" y="0px"><g transform="translate(-225.97627,-261.21204)"><path style="" d="m 541.37727,261.21204 -54.548,99.275 c -5.274,9.495 -16.917,13.434 -26.909,9.09 l -46.183,-19.637 25.577,163.639 c 1.366,8.938 -9.362,14.39 -15.879,8.123 l -72.244,-70.184 -11.031,32.364 c -4.097,11.916 -16.744,18.799 -28.971,15.759 l -72.121,-18.061 20.606,100.122 c 2.358,11.482 -3.747,23.048 -14.546,27.517 l -19.152,7.757 141.215,124.851 c 10.179,9.061 14.617,22.841 11.637,36.121 l -8.242,37.214 133.699,-17.577 c 13.343,-1.738 25.159,8.84 24.848,22.183 l -3.392,155.155 15.636,0 15.635,0 -3.392,-155.155 c -0.248,-13.405 11.568,-23.983 24.848,-22.183 l 133.578,17.577 -8.242,-37.214 c -2.855,-13.218 1.7,-27.06 11.878,-36.121 l 141.095,-124.851 -37.698,-15.516 24.607,-120.002 -93.701,23.516 -18.302,-53.456 -72.243,70.184 c -6.456,6.329 -17.244,0.815 -15.88,-8.123 l 25.575,-163.639 -46.181,19.637 c -10.054,4.282 -21.697,0.405 -26.91,-9.09 l -54.667,-99.275 z" fill="#002D72"></path></g></svg>